<?xml version="1.0" encoding="utf-8"?>
<!-- Generator: Adobe Illustrator 16.0.4, SVG Export Plug-In . SVG Version: 6.00 Build 0)  -->
<!DOCTYPE svg PUBLIC "-//W3C//DTD SVG 1.1//EN" "http://www.w3.org/Graphics/SVG/1.1/DTD/svg11.dtd">
<svg version="1.1" id="Layer_1" xmlns="http://www.w3.org/2000/svg" xmlns:xlink="http://www.w3.org/1999/xlink" x="0px" y="0px"
	 width="1920px" height="890px" viewBox="-560 -144.181 1920 890" enable-background="new -560 -144.181 1920 890"
	 xml:space="preserve">
<g>
	<g>
		<g>
			<path fill="#FFFFFF" d="M73.183,361.676c0.093-0.733,0.17-1.468,0.22-2.216c1.342-20.022-13.538-37.321-33.238-38.642
				c-19.697-1.317-36.75,13.846-38.09,33.865c-0.051,0.75-0.069,1.489-0.076,2.227c0,0,14.343,3.932,36.337,5.402
				C60.332,363.786,73.183,361.676,73.183,361.676z"/>
			<path fill="#3E3B3B" d="M53.504,365.952c-0.002,0-0.002,0-0.004,0c-4.958,0-10.13-0.175-15.371-0.528
				c-22.055-1.473-36.356-5.347-36.955-5.507c-1.364-0.378-2.306-1.622-2.292-3.035c0.006-0.798,0.027-1.604,0.083-2.413
				c1.443-21.528,19.908-38.189,41.407-36.761c21.385,1.434,37.596,20.254,36.142,41.961c-0.053,0.805-0.138,1.6-0.239,2.396
				c-0.17,1.368-1.224,2.461-2.588,2.688C73.391,364.802,66.229,365.952,53.504,365.952z M5.215,354.486
				c4.907,1.143,17.034,3.626,33.33,4.713c5.105,0.344,10.134,0.519,14.955,0.519c8.049,0,13.814-0.485,16.814-0.818
				c1.023-18.128-12.522-33.775-30.357-34.97C22.023,322.743,6.627,336.549,5.215,354.486z"/>
		</g>
		<g>
			<path fill="#F5F6F6" d="M29.792,376.541c8.038,3.813,25.938,2.738,33.43-2.547"/>
			<path fill="#3E3B3B" d="M42.926,382.754c-5.595,0-10.954-0.867-14.804-2.69c-1.945-0.923-2.775-3.245-1.852-5.19
				c0.922-1.943,3.245-2.778,5.192-1.854c7.077,3.354,23.348,2.138,29.51-2.209c1.761-1.244,4.192-0.817,5.434,0.939
				c1.241,1.758,0.821,4.19-0.941,5.433C60.362,380.781,51.38,382.754,42.926,382.754z"/>
		</g>
		<g>
			<path fill="#F5F6F6" d="M35.353,391.187c6.591,3.901,21.159,3.023,27.204-2.175"/>
			<path fill="#3E3B3B" d="M46.51,397.522c-4.943,0-9.728-0.963-13.143-2.982c-1.853-1.095-2.465-3.484-1.369-5.337
				c1.097-1.858,3.492-2.468,5.34-1.37c5.365,3.171,18.082,2.178,22.68-1.776c1.627-1.401,4.088-1.224,5.495,0.417
				c1.402,1.633,1.217,4.093-0.416,5.495C60.9,395.575,53.541,397.522,46.51,397.522z"/>
		</g>
		<g>
			<path fill="#F5F6F6" d="M39.373,406.08c5.081,3.009,16.323,2.336,20.983-1.675"/>
			<path fill="#3E3B3B" d="M47.947,411.832c-3.974,0-7.815-0.771-10.56-2.397c-1.852-1.093-2.464-3.485-1.369-5.338
				c1.099-1.86,3.491-2.467,5.341-1.368c3.81,2.252,13.197,1.524,16.457-1.277c1.628-1.405,4.092-1.218,5.495,0.412
				c1.403,1.633,1.219,4.092-0.413,5.499C59.522,410.267,53.604,411.832,47.947,411.832z"/>
		</g>
		<g>
			<path fill="#F5F6F6" d="M41.056,420.516c4.084,2.972,13.256,2.675,17.127-0.942"/>
			<path fill="#3E3B3B" d="M48.746,426.463c-3.726,0-7.393-0.912-9.983-2.794c-1.74-1.267-2.126-3.707-0.858-5.446
				c1.265-1.739,3.702-2.128,5.445-0.857c2.716,1.977,9.772,1.605,12.174-0.639c1.57-1.473,4.039-1.386,5.508,0.189
				c1.469,1.573,1.385,4.036-0.19,5.507C57.997,425.081,53.328,426.463,48.746,426.463z"/>
		</g>
		<g>
			<path fill="#F5F6F6" d="M42.667,434.233c3.519,2.214,11.436,1.96,14.795-0.767"/>
			<path fill="#3E3B3B" d="M49.201,439.616c-3.221,0-6.378-0.679-8.611-2.086c-1.82-1.146-2.369-3.551-1.223-5.375
				c1.146-1.818,3.548-2.372,5.376-1.219c2.237,1.403,8.279,1.112,10.263-0.495c1.668-1.361,4.125-1.102,5.482,0.567
				c1.357,1.673,1.102,4.127-0.57,5.485C57.391,438.543,53.246,439.616,49.201,439.616z"/>
		</g>
		<g>
			<g>
				<path fill="#F5F6F6" d="M35.389,472.342c-6.731-31.428,43.699-23.472,32.854-2.782"/>
				<path fill="#3E3B3B" d="M32.341,472.994c-2.134-9.956,0.875-18.001,8.253-22.062c8.525-4.695,21.406-3.097,28.13,3.491
					c4.607,4.514,5.438,10.557,2.28,16.586l-5.524-2.899c1.869-3.567,1.493-6.672-1.12-9.234
					c-4.758-4.661-14.649-5.841-20.758-2.482c-4.939,2.723-6.726,8.01-5.165,15.295L32.341,472.994z"/>
			</g>
			<g>
				<path fill="#F5F6F6" d="M35.225,477.014c-2.092-0.072-3.952-1.551-4.412-3.697c-2.286-10.674,1.007-19.331,9.03-23.75
					c9.075-5,22.8-3.283,29.973,3.747c5.133,5.027,6.068,11.742,2.569,18.42c-1.198,2.285-4.026,3.167-6.312,1.971
					c-2.29-1.203-3.173-4.024-1.972-6.317c1.557-2.965,1.291-5.317-0.83-7.391c-3.821-3.749-12.917-5.535-18.916-2.233
					c-4.337,2.386-5.813,6.958-4.391,13.597c0.54,2.527-1.072,5.015-3.598,5.555C35.983,476.996,35.601,477.027,35.225,477.014z"/>
				<path fill="#3E3B3B" d="M35.383,480.136c-0.033,0-0.227-0.004-0.259-0.004c-3.59-0.127-6.61-2.661-7.36-6.165
					c-2.557-11.932,1.396-22.078,10.575-27.133c3.866-2.129,8.536-3.257,13.51-3.257c7.821,0,15.353,2.809,20.15,7.509
					c6.091,5.973,7.27,14.231,3.147,22.097c-1.351,2.573-3.998,4.175-6.909,4.175c-1.252,0-2.502-0.308-3.613-0.889
					c-3.808-2-5.281-6.725-3.285-10.527c1.118-2.132,0.601-2.883-0.252-3.718c-1.848-1.812-5.685-3.078-9.327-3.078
					c-2.262,0-4.302,0.464-5.903,1.349c-1.933,1.062-4.331,3.278-2.846,10.212c0.435,2.036,0.053,4.12-1.081,5.868
					c-1.132,1.748-2.875,2.952-4.912,3.389C36.487,480.078,35.935,480.136,35.383,480.136z M51.85,449.817
					c-3.925,0-7.557,0.854-10.501,2.479c-6.833,3.764-9.493,10.997-7.485,20.367c0.15,0.703,0.754,1.209,1.47,1.236l0.051,3.119
					v-3.119c0.114,0,0.224-0.012,0.331-0.031c0.55-0.12,0.852-0.478,0.984-0.681c0.132-0.202,0.334-0.626,0.215-1.173
					c-2.171-10.14,2.03-14.833,5.938-16.985c2.519-1.384,5.601-2.117,8.91-2.117c5.308,0,10.683,1.906,13.693,4.858
					c2.175,2.124,4.187,5.773,1.409,11.066c-0.399,0.759-0.104,1.707,0.658,2.107c0.634,0.327,1.604,0.297,2.102-0.66
					c2.857-5.451,2.152-10.687-1.989-14.743C63.976,451.956,58.075,449.817,51.85,449.817z"/>
			</g>
		</g>
	</g>
	<g>
		<path fill="#FFFFFF" d="M-294.898,340.351c0.033-0.739,0.083-1.477,0.159-2.218c2.112-19.958,19.737-34.453,39.367-32.378
			c19.637,2.078,33.838,19.935,31.726,39.892c-0.078,0.744-0.184,1.478-0.306,2.206c0,0-14.804,1.417-36.726-0.9
			C-282.601,344.632-294.898,340.351-294.898,340.351z"/>
		<path fill="#3E3B3B" d="M-236.126,351.4c-8.061,0-16.432-0.453-24.88-1.348c-22.028-2.33-34.401-6.579-34.918-6.757
			c-1.302-0.455-2.152-1.712-2.089-3.086c0.037-0.802,0.09-1.596,0.171-2.397c2.136-20.17,18.786-35.375,38.729-35.375
			c1.351,0,2.72,0.072,4.069,0.217c21.312,2.255,36.787,21.686,34.499,43.319c-0.083,0.801-0.199,1.601-0.333,2.393
			c-0.233,1.392-1.372,2.452-2.776,2.588C-223.844,350.973-228.379,351.4-236.126,351.4z M-291.599,338.107
			c4.45,1.286,15.288,4.055,31.249,5.746c8.229,0.869,16.38,1.308,24.224,1.308c4.167,0,7.388-0.13,9.418-0.245
			c1.694-18.056-11.235-34.182-28.993-36.061C-273.71,306.985-289.515,320.163-291.599,338.107z"/>
	</g>
	<g>
		<path fill="#F5F6F6" d="M-249.55,360.172c-8.039,3.813-25.936,2.736-33.428-2.545"/>
		<path fill="#3E3B3B" d="M-262.681,366.382c-8.454,0-17.437-1.97-22.542-5.569c-1.761-1.241-2.181-3.673-0.939-5.432
			c1.237-1.764,3.675-2.184,5.429-0.94c6.166,4.347,22.441,5.563,29.512,2.21c1.945-0.923,4.272-0.095,5.192,1.853
			c0.922,1.945,0.093,4.267-1.851,5.19C-251.727,365.519-257.088,366.382-262.681,366.382z"/>
	</g>
	<g>
		<path fill="#F5F6F6" d="M-255.113,374.817c-6.59,3.896-21.158,3.024-27.202-2.173"/>
		<path fill="#3E3B3B" d="M-266.27,381.154c-7.033,0-14.389-1.947-18.586-5.553c-1.632-1.404-1.817-3.863-0.414-5.495
			c1.406-1.636,3.861-1.819,5.497-0.417c4.592,3.948,17.306,4.945,22.677,1.771c1.851-1.086,4.243-0.482,5.339,1.373
			c1.096,1.854,0.483,4.244-1.372,5.342C-256.543,380.191-261.327,381.154-266.27,381.154z"/>
	</g>
	<g>
		<path fill="#F5F6F6" d="M-259.129,389.71c-5.086,3.009-16.323,2.335-20.988-1.673"/>
		<path fill="#3E3B3B" d="M-267.706,395.458c-5.657,0-11.573-1.561-14.951-4.464c-1.632-1.402-1.819-3.865-0.415-5.495
			c1.401-1.632,3.867-1.823,5.496-0.417c3.264,2.803,12.649,3.526,16.461,1.274c1.847-1.098,4.243-0.483,5.34,1.366
			c1.096,1.854,0.483,4.246-1.369,5.341C-259.887,394.689-263.733,395.458-267.706,395.458z"/>
	</g>
	<g>
		<path fill="#F5F6F6" d="M-263.152,404.142c-4.085,2.972-13.253,2.676-17.125-0.941"/>
		<path fill="#3E3B3B" d="M-270.841,410.092c-4.583,0-9.251-1.381-12.098-4.04c-1.573-1.471-1.657-3.933-0.188-5.509
			c1.47-1.57,3.936-1.663,5.508-0.191c2.404,2.246,9.463,2.612,12.175,0.64c1.742-1.268,4.177-0.884,5.446,0.859
			c1.265,1.742,0.88,4.178-0.861,5.443C-263.449,409.179-267.118,410.092-270.841,410.092z"/>
	</g>
	<g>
		<path fill="#F5F6F6" d="M-267.101,417.865c-3.519,2.209-11.438,1.956-14.794-0.766"/>
		<path fill="#3E3B3B" d="M-273.635,423.244c-4.046,0-8.189-1.069-10.716-3.119c-1.672-1.356-1.927-3.814-0.57-5.48
			c1.355-1.674,3.811-1.929,5.482-0.571c1.98,1.609,8.029,1.903,10.264,0.488c1.825-1.138,4.229-0.594,5.375,1.229
			c1.145,1.823,0.596,4.229-1.226,5.376C-267.258,422.566-270.417,423.244-273.635,423.244z"/>
	</g>
	<g>
		<g>
			<path fill="#FFFFFF" d="M-223.759,441.247c-1.605-0.051-2.911-1.306-3.021-2.905l-8.351-123.157
				c-0.069-1.053,0.395-2.073,1.241-2.704l20.333-15.229c0.542-0.403,1.199-0.623,1.87-0.623c0.025,0,216.082,5.224,216.082,5.224
				c0.874,0.021,1.7,0.407,2.273,1.067l17.099,19.58c0.586,0.676,0.855,1.571,0.74,2.457L8.683,445.317
				c-0.205,1.555-1.531,2.715-3.09,2.715C5.562,448.03-223.759,441.247-223.759,441.247z"/>
		</g>
		<g>
			<path fill="#3E3B3B" d="M-211.687,299.746L4.32,304.971l17.097,19.585L5.593,444.915l-229.262-6.786l-8.351-123.155
				L-211.687,299.746 M-211.687,293.509c-1.347,0-2.659,0.435-3.738,1.245l-20.332,15.228c-1.694,1.271-2.629,3.307-2.485,5.413
				l8.354,123.155c0.216,3.202,2.827,5.716,6.036,5.812L5.41,451.142c0.062,0.007,0.122,0.007,0.184,0.007
				c3.119,0,5.769-2.314,6.18-5.425l15.829-120.358c0.232-1.776-0.309-3.565-1.486-4.914L9.021,300.867
				c-1.149-1.318-2.8-2.091-4.548-2.135l-216.007-5.225C-211.585,293.509-211.638,293.509-211.687,293.509L-211.687,293.509z"/>
		</g>
	</g>
	<g>
		<g>
			<path fill="#FFFFFF" d="M-226.875,470.566c-1.644-0.048-2.971-1.366-3.022-3.014l-4.916-150.295
				c-0.027-0.859,0.303-1.696,0.909-2.303c0.587-0.588,1.381-0.915,2.209-0.915c0.03,0,253.064,7.482,253.064,7.482
				c0.867,0.024,1.687,0.416,2.257,1.07c0.572,0.653,0.846,1.515,0.75,2.381L8.252,474.646c-0.171,1.587-1.513,2.783-3.1,2.783
				C5.122,477.43-226.875,470.566-226.875,470.566z"/>
		</g>
		<g>
			<path fill="#3E3B3B" d="M-231.695,317.156l252.971,7.48L5.149,474.313l-231.933-6.864L-231.695,317.156 M-231.695,310.92
				c-1.654,0-3.244,0.656-4.417,1.832c-1.214,1.218-1.875,2.885-1.815,4.606l4.913,150.298c0.107,3.291,2.757,5.929,6.049,6.026
				l231.932,6.858c0.065,0.008,0.125,0.008,0.188,0.008c3.172,0,5.858-2.394,6.199-5.57L27.48,325.306
				c0.182-1.728-0.362-3.454-1.501-4.765c-1.143-1.312-2.778-2.086-4.517-2.137l-252.972-7.483
				C-231.573,310.92-231.635,310.92-231.695,310.92L-231.695,310.92z"/>
		</g>
	</g>
	<g>
		<g>
			<path fill="#FFFFFF" d="M-207.676,266.891c-1.722,0-3.118-1.396-3.118-3.118V144.507c0-1.722,1.397-3.117,3.118-3.117H-6.565
				c1.722,0,3.118,1.395,3.118,3.117v119.267c0,1.722-1.396,3.118-3.118,3.118h-201.111V266.891z"/>
		</g>
		<g>
			<path fill="#3E3B3B" d="M-6.564,144.507v119.267h-201.112V144.507H-6.564 M-6.564,138.272h-201.112
				c-3.445,0-6.235,2.792-6.235,6.235v119.267c0,3.444,2.791,6.234,6.235,6.234H-6.565c3.445,0,6.236-2.79,6.236-6.234V144.507
				C-0.328,141.063-3.119,138.272-6.564,138.272L-6.564,138.272z"/>
		</g>
	</g>
	<g>
		<circle fill="#FFFFFF" cx="-158.957" cy="166.725" r="38.586"/>
		<path fill="#3E3B3B" d="M-158.956,208.429c-22.997,0-41.706-18.709-41.706-41.705s18.709-41.702,41.706-41.702
			c22.995,0,41.702,18.708,41.702,41.702C-117.254,189.721-135.96,208.429-158.956,208.429z M-158.956,131.258
			c-19.558,0-35.47,15.91-35.47,35.466c0,19.557,15.912,35.469,35.47,35.469c19.557,0,35.467-15.912,35.467-35.469
			C-123.488,147.168-139.398,131.258-158.956,131.258z"/>
	</g>
	<circle fill="#FFFFFF" cx="-56.058" cy="166.724" r="38.584"/>
	<path fill="#3E3B3B" d="M-56.058,208.429c-22.995,0-41.703-18.709-41.703-41.705s18.708-41.702,41.703-41.702
		s41.701,18.708,41.701,41.702C-14.356,189.721-33.062,208.429-56.058,208.429z M-56.058,131.258
		c-19.557,0-35.466,15.91-35.466,35.466c0,19.557,15.909,35.469,35.466,35.469s35.467-15.912,35.467-35.469
		C-20.591,147.168-36.5,131.258-56.058,131.258z"/>
	<g>
		<circle fill="#3E3B3B" cx="-161.88" cy="159.518" r="8.77"/>
	</g>
	<g>
		<circle fill="#3E3B3B" cx="-54.303" cy="164.197" r="8.77"/>
	</g>
	<g>
		<path fill="#3E3B3B" d="M-109.458,142.561c-0.959,0-1.862-0.598-2.203-1.552l-35.076-98.217c-0.435-1.216,0.2-2.555,1.415-2.989
			c1.21-0.436,2.555,0.201,2.989,1.415l35.077,98.215c0.435,1.217-0.201,2.556-1.415,2.99
			C-108.931,142.517-109.197,142.561-109.458,142.561z"/>
	</g>
	<g>
		<path fill="#3E3B3B" d="M-108.279,142.357c-0.445,0-0.895-0.125-1.292-0.391c-1.076-0.713-1.369-2.165-0.656-3.241l57.668-86.899
			c0.716-1.078,2.166-1.371,3.241-0.656c1.076,0.715,1.369,2.166,0.656,3.242l-57.668,86.898
			C-106.78,141.99-107.522,142.357-108.279,142.357z"/>
	</g>
	<g>
		<circle fill="#FFFFFF" cx="-146.484" cy="36.541" r="7.015"/>
		<path fill="#3E3B3B" d="M-146.484,45.894c-5.158,0-9.353-4.196-9.353-9.354c0-5.157,4.195-9.351,9.353-9.351
			c5.159,0,9.353,4.195,9.353,9.351C-137.131,41.698-141.325,45.894-146.484,45.894z M-146.484,31.865
			c-2.578,0-4.677,2.097-4.677,4.675c0,2.579,2.099,4.677,4.677,4.677c2.579,0,4.678-2.099,4.678-4.677
			C-141.806,33.962-143.905,31.865-146.484,31.865z"/>
	</g>
	<g>
		<circle fill="#FFFFFF" cx="-48" cy="50.053" r="7.015"/>
		<path fill="#3E3B3B" d="M-48,59.407c-5.159,0-9.353-4.198-9.353-9.354c0-5.158,4.195-9.354,9.353-9.354s9.353,4.196,9.353,9.354
			C-38.647,55.211-42.843,59.407-48,59.407z M-48,45.375c-2.578,0-4.676,2.098-4.676,4.678c0,2.579,2.098,4.677,4.676,4.677
			c2.579,0,4.676-2.098,4.676-4.677C-43.323,47.475-45.421,45.375-48,45.375z"/>
	</g>
	<g>
		<path fill="#3E3B3B" d="M-110.98,245.993c-12.207,0-23.568-4.364-29.444-12.632c-0.998-1.402-0.667-3.351,0.735-4.348
			c1.406-0.999,3.351-0.67,4.347,0.735c8.246,11.603,31.235,13.453,47.302,3.811c1.477-0.892,3.394-0.408,4.278,1.068
			c0.886,1.476,0.409,3.393-1.067,4.278C-92.804,243.689-102.116,245.993-110.98,245.993z"/>
	</g>
	<g>
		<g>
			<path fill="#F5F6F6" d="M-110.299,288.119c-7.169,0-14.267-1.675-19.747-5.582c-1.751-1.251-2.158-3.685-0.911-5.438
				c1.251-1.753,3.687-2.159,5.438-0.912c8.603,6.135,24.146,4.833,33.26-0.231c1.883-1.047,4.255-0.367,5.301,1.513
				c1.043,1.882,0.366,4.254-1.513,5.3C-94.443,286.088-102.413,288.119-110.299,288.119z"/>
			<path fill="#3E3B3B" d="M-110.299,290.848c-8.365,0-15.742-2.106-21.331-6.089c-2.972-2.122-3.667-6.266-1.552-9.242
				c2.047-2.87,6.374-3.6,9.245-1.551c3.253,2.32,8.089,3.598,13.616,3.598c5.982,0,12.237-1.493,16.736-3.994
				c3.09-1.722,7.294-0.509,9.01,2.571c1.773,3.195,0.621,7.239-2.571,9.01C-93.656,288.772-102.094,290.848-110.299,290.848z
				 M-127.779,278.193c-0.182,0-0.641,0.047-0.956,0.491c-0.373,0.525-0.251,1.259,0.275,1.633
				c5.883,4.19,13.124,5.072,18.162,5.072c7.306,0,14.778-1.822,20.503-5.004c0.563-0.313,0.766-1.027,0.453-1.59
				c-0.393-0.707-1.115-0.715-1.589-0.454c-5.273,2.932-12.521,4.681-19.387,4.681c-4.707,0-11.441-0.801-16.784-4.611
				C-127.354,278.231-127.609,278.193-127.779,278.193z"/>
		</g>
	</g>
	<g>
		<g>
			<path fill="#F5F6F6" d="M-110.452,306.049c-8.048,0-16.023-1.883-22.176-6.272c-1.968-1.401-2.426-4.135-1.024-6.107
				c1.406-1.969,4.139-2.424,6.108-1.021c9.662,6.89,27.121,5.428,37.359-0.263c2.114-1.173,4.781-0.412,5.954,1.703
				c1.173,2.111,0.409,4.776-1.703,5.951C-92.64,303.766-101.59,306.049-110.452,306.049z"/>
			<path fill="#3E3B3B" d="M-110.452,308.779c-9.327,0-17.543-2.346-23.761-6.78c-3.188-2.274-3.934-6.719-1.662-9.913
				c2.199-3.076,6.832-3.858,9.913-1.66c3.709,2.646,9.21,4.101,15.488,4.101c6.772,0,13.86-1.692,18.962-4.525
				c3.322-1.85,7.828-0.541,9.664,2.76c1.902,3.423,0.666,7.757-2.76,9.662C-91.875,306.461-101.296,308.779-110.452,308.779z
				 M-130.085,294.561c-0.542,0-1.033,0.253-1.347,0.694c-0.526,0.736-0.353,1.769,0.387,2.298
				c6.681,4.764,14.886,5.764,20.593,5.764c8.259,0,16.712-2.062,23.193-5.663c0.384-0.214,0.665-0.566,0.784-0.991
				c0.123-0.421,0.071-0.868-0.141-1.25c-0.427-0.766-1.46-1.075-2.247-0.644c-5.873,3.265-13.953,5.215-21.611,5.215
				c-5.237,0-12.727-0.887-18.655-5.114C-129.484,294.616-129.845,294.561-130.085,294.561z"/>
		</g>
	</g>
	<g>
		<g>
			<path fill="#3E3B3B" d="M-161.859,493.16c-8.229-0.28-16.327-2.236-22.485-6.362c-1.971-1.315-2.353-3.77-0.859-5.471
				c1.495-1.702,4.308-2.008,6.276-0.694c9.669,6.475,27.568,5.79,38.217,1.095c2.197-0.972,4.9-0.203,6.037,1.716
				c1.134,1.927,0.272,4.272-1.925,5.241C-143.571,491.768-152.796,493.475-161.859,493.16z"/>
		</g>
	</g>
	<g>
		<g>
			<path fill="#3E3B3B" d="M-160.923,533.756c-8.232-0.286-16.329-2.243-22.489-6.367c-1.969-1.314-2.353-3.766-0.855-5.464
				c1.494-1.705,4.303-2.015,6.275-0.695c9.669,6.471,27.568,5.788,38.215,1.089c2.202-0.971,4.903-0.199,6.041,1.723
				c1.133,1.925,0.272,4.266-1.926,5.237C-142.636,532.356-151.86,534.068-160.923,533.756z"/>
		</g>
	</g>
	<g>
		<g>
			<path fill="#3E3B3B" d="M-158.833,507.087c-7.504,0.079-14.954-1.412-20.73-5.015c-1.846-1.153-2.296-3.428-1.006-5.085
				c1.292-1.66,3.837-2.065,5.683-0.911c9.069,5.648,25.327,4.26,34.825-0.59c1.958-0.997,4.45-0.39,5.562,1.36
				c1.116,1.755,0.428,3.985-1.532,4.986C-142.251,505.009-150.574,507.001-158.833,507.087z"/>
		</g>
	</g>
	<g>
		<g>
			<path fill="#3E3B3B" d="M-157.705,519.886c-7.505,0.082-14.95-1.446-20.727-5.138c-1.85-1.177-2.298-3.509-1.009-5.203
				c1.289-1.701,3.833-2.114,5.682-0.937c9.069,5.789,25.327,4.372,34.822-0.592c1.961-1.027,4.453-0.398,5.566,1.397
				c1.112,1.794,0.429,4.079-1.531,5.1C-141.123,517.768-149.446,519.804-157.705,519.886z"/>
		</g>
	</g>
	<g>
		<g>
			<path fill="#FFFFFF" d="M-172.407,579.481c-22.405,0-34.055-6.07-34.538-6.329c-1.127-0.602-1.775-1.832-1.632-3.098
				c0.073-0.673,1.944-16.521,11.27-23.971c4.105-3.277,11.178-4.941,21.024-4.941c10.127,0,22.305,1.904,31.779,4.969
				c15.037,4.869,15.291,20.152,13.318,27.556c-0.293,1.104-1.165,1.956-2.271,2.231c-0.495,0.115-12.367,2.966-35.836,3.547
				c-1.061,0.023-2.097,0.036-3.111,0.036H-172.407L-172.407,579.481z"/>
		</g>
		<g>
			<path fill="#3E3B3B" d="M-176.284,544.259c10.127,0,21.861,1.923,30.82,4.821c16.198,5.24,11.265,23.785,11.265,23.785
				s-11.769,2.883-35.171,3.461c-1.036,0.024-2.044,0.038-3.038,0.038c-21.882,0-33.07-5.966-33.07-5.966
				s1.692-15.151,10.114-21.879C-191.598,545.516-184.467,544.259-176.284,544.259 M-176.284,538.021
				c-10.57,0-18.296,1.893-22.971,5.628c-10.148,8.109-12.221,24.242-12.422,26.057c-0.284,2.536,1.009,4.994,3.264,6.195
				c0.513,0.273,12.828,6.697,36.005,6.697c1.051,0,2.127-0.011,3.194-0.035c23.803-0.589,35.989-3.513,36.5-3.64
				c2.212-0.542,3.955-2.25,4.542-4.456c0.161-0.598,1.537-6.068,0.583-12.452c-1.391-9.288-7.057-15.99-15.956-18.868
				C-153.309,539.986-165.854,538.021-176.284,538.021L-176.284,538.021z"/>
		</g>
	</g>
	<g>
		<g>
			<g>
				<path fill="#3E3B3B" d="M-67,496.247c8.234,0,16.396-1.676,22.692-5.581c2.013-1.247,2.481-3.679,1.047-5.436
					c-1.436-1.755-4.233-2.159-6.251-0.911c-9.885,6.133-27.75,4.833-38.23-0.235c-2.161-1.043-4.89-0.363-6.091,1.516
					c-1.201,1.884-0.421,4.256,1.74,5.301C-85.228,494.222-76.066,496.247-67,496.247z"/>
			</g>
		</g>
		<g>
			<g>
				<path fill="#3E3B3B" d="M-69.339,536.786c8.235,0,16.396-1.676,22.694-5.582c2.013-1.255,2.481-3.687,1.048-5.436
					c-1.437-1.754-4.235-2.165-6.251-0.91c-9.886,6.133-27.748,4.831-38.23-0.235c-2.164-1.045-4.892-0.37-6.092,1.512
					c-1.201,1.884-0.42,4.259,1.739,5.302C-87.566,534.755-78.405,536.786-69.339,536.786z"/>
			</g>
		</g>
		<g>
			<g>
				<path fill="#3E3B3B" d="M-70.503,510.062c7.495,0.338,14.99-0.897,20.889-4.297c1.883-1.087,2.412-3.347,1.18-5.047
					c-1.233-1.7-3.761-2.195-5.649-1.108c-9.258,5.337-25.46,3.381-34.782-1.791c-1.927-1.07-4.433-0.545-5.607,1.168
					c-1.172,1.712-0.564,3.969,1.357,5.032C-87.006,507.41-78.756,509.692-70.503,510.062z"/>
			</g>
		</g>
		<g>
			<g>
				<path fill="#3E3B3B" d="M-72.075,522.815c7.496,0.337,14.994-0.933,20.892-4.419c1.89-1.118,2.419-3.429,1.19-5.17
					c-1.231-1.739-3.76-2.246-5.647-1.126c-9.263,5.47-25.467,3.489-34.784-1.799c-1.922-1.094-4.432-0.554-5.611,1.201
					c-1.173,1.755-0.565,4.062,1.357,5.156C-88.577,520.12-80.327,522.444-72.075,522.815z"/>
			</g>
		</g>
		<g>
			<g>
				<path fill="#FFFFFF" d="M-62.534,581.124c-24.326,0-35.959-4.975-36.447-5.182c-0.917-0.406-1.581-1.232-1.77-2.219
					c-1.439-7.466-0.292-22.633,14.344-26.606c7.619-2.066,16.912-3.253,25.491-3.253c8.363,0,19.503,1.1,25.074,6.356
					c8.594,8.099,7.816,22.662,7.777,23.281c-0.058,0.979-0.587,1.867-1.418,2.39c-0.767,0.486-8.097,4.738-29.111,5.193
					C-59.942,581.113-61.256,581.124-62.534,581.124z"/>
			</g>
			<g>
				<path fill="#3E3B3B" d="M-60.915,546.916c9.871,0,18.852,1.626,22.983,5.524c7.652,7.21,6.824,20.874,6.824,20.874
					s-6.773,4.271-27.549,4.717c-1.326,0.031-2.621,0.045-3.875,0.045c-23.964,0-35.22-4.928-35.22-4.928
					s-3.625-18.809,12.143-23.09C-78.357,548.096-69.313,546.916-60.915,546.916 M-60.915,540.814L-60.915,540.814
					c-8.836,0-18.42,1.223-26.29,3.358c-8.698,2.362-14.51,8.688-16.369,17.819c-1.268,6.24-0.288,11.706-0.171,12.312
					c0.379,1.967,1.706,3.623,3.543,4.431c0.507,0.222,12.713,5.442,37.668,5.442c1.316,0,2.662-0.018,4.006-0.043
					c21.386-0.461,29.304-4.793,30.674-5.662c1.659-1.044,2.714-2.825,2.832-4.789c0.102-1.692,0.728-16.771-8.725-25.682
					C-40.047,542.061-51.997,540.814-60.915,540.814L-60.915,540.814z"/>
			</g>
		</g>
	</g>
	<g>
		<g>
			<path fill="#F5F6F6" d="M-261.632,455.726c10.832-24.604-36.374-30.32-38.358-9.387"/>
			<path fill="#3E3B3B" d="M-258.779,456.981l-5.708-2.513c2.133-4.843,1.73-8.926-1.196-12.134
				c-4.659-5.112-15.237-7.206-23.091-4.592c-3.424,1.147-7.614,3.615-8.114,8.888l-6.208-0.585
				c0.627-6.625,5.127-11.805,12.345-14.219c10.292-3.427,23.326-0.662,29.678,6.307
				C-256.467,443.187-255.651,449.88-258.779,456.981z"/>
		</g>
		<g>
			<path fill="#F5F6F6" d="M-262.195,460.369c-0.446-0.057-0.89-0.171-1.325-0.362c-2.362-1.043-3.435-3.805-2.395-6.167
				c1.888-4.285,1.589-7.703-0.917-10.453c-4.292-4.71-14.11-6.615-21.446-4.164c-2.987,1-6.633,3.119-7.055,7.558
				c-0.245,2.572-2.525,4.461-5.099,4.217c-2.604-0.227-4.458-2.524-4.215-5.098c0.688-7.265,5.575-12.932,13.403-15.546
				c10.827-3.62,24.585-0.662,31.325,6.731c5.046,5.537,5.954,12.825,2.564,20.529
				C-258.202,459.544-260.202,460.613-262.195,460.369z"/>
			<path fill="#3E3B3B" d="M-261.631,463.52c-0.313,0-0.629-0.02-0.943-0.055c-0.761-0.095-1.498-0.297-2.192-0.6
				c-3.941-1.746-5.73-6.355-4.003-10.282c1.752-3.976,0.797-5.821-0.367-7.098c-2.298-2.524-7.186-4.214-12.158-4.214
				c-2.138,0-4.212,0.312-5.995,0.908c-4.621,1.544-4.86,4.066-4.939,4.895c-0.406,4.271-4.141,7.405-8.498,7.028
				c-2.048-0.181-3.922-1.155-5.25-2.75c-1.342-1.605-1.971-3.648-1.774-5.746c0.809-8.548,6.466-15.188,15.52-18.21
				c3.378-1.133,7.033-1.705,10.858-1.705c9.43,0,18.534,3.56,23.759,9.29c5.838,6.407,6.974,15.114,3.113,23.886
				C-255.742,461.694-258.543,463.52-261.631,463.52z M-281.295,435.031c6.826,0,13.251,2.397,16.768,6.253
				c2.324,2.55,4.461,7.018,1.465,13.812c-0.345,0.784,0.016,1.712,0.804,2.06c0.131,0.059,0.282,0.098,0.445,0.119l0.182,0.009
				c0.618,0,1.174-0.364,1.423-0.93c2.905-6.601,2.208-12.539-2.015-17.172c-4.081-4.475-11.418-7.254-19.15-7.254
				c-3.153,0-6.141,0.464-8.881,1.377c-6.607,2.212-10.722,6.908-11.288,12.888c-0.04,0.43,0.084,0.846,0.356,1.166
				c0.181,0.218,0.505,0.487,1.026,0.532c0.005,0,0.016,0,0.023,0c0.97,0,1.625-0.604,1.7-1.406
				c0.453-4.764,3.709-8.39,9.168-10.218C-286.818,435.448-284.138,435.031-281.295,435.031z"/>
		</g>
	</g>
	<g>
		<g>
			<g>
				<path fill="#FFFFFF" d="M-55.486,395.291c-3.687,24.637-26.308,41.732-50.657,41.827c-24.35-0.095-46.971-17.19-50.662-41.827
					c-3.709-24.525,18.896-48.215,50.662-48.203C-74.376,347.076-51.775,370.766-55.486,395.291z"/>
			</g>
			<g>
				<path fill="#3E3B3B" d="M-106.143,440.756c-0.004,0-0.008,0-0.013,0c-27.106-0.104-50.427-19.419-54.246-44.925
					c-1.785-11.79,1.846-23.653,10.224-33.392c10.378-12.065,26.42-18.99,44.012-18.99c17.638,0,33.678,6.923,44.054,18.983
					c8.378,9.743,12.009,21.604,10.223,33.404c-3.814,25.5-27.134,44.815-54.24,44.919
					C-106.132,440.756-106.137,440.756-106.143,440.756z M-106.117,350.724c-15.519,0-29.55,5.998-38.543,16.46
					c-6.975,8.105-10.01,17.897-8.547,27.564c3.293,21.989,23.525,38.636,47.065,38.732c23.54-0.097,43.771-16.744,47.059-38.728
					c1.464-9.676-1.57-19.466-8.543-27.575C-76.62,356.722-90.649,350.724-106.117,350.724z"/>
			</g>
		</g>
		<g>
			<g>
				<path fill="#FFFFFF" d="M-70.684,394.335c-2.58,17.242-18.413,29.214-35.458,29.279c-17.043-0.065-32.88-12.037-35.463-29.279
					c-2.597-17.169,13.226-33.753,35.463-33.741C-83.907,360.581-68.085,377.165-70.684,394.335z"/>
			</g>
			<g>
				<path fill="#3E3B3B" d="M-106.128,426.729c-19.664-0.07-36.559-14.088-39.332-32.597c-0.32-2.131,1.148-4.113,3.277-4.434
					c2.126-0.347,4.115,1.149,4.433,3.278c2.206,14.739,15.803,25.895,31.624,25.957c6.878-0.024,13.773-2.273,19.381-6.332
					c1.746-1.261,4.181-0.871,5.444,0.87c1.262,1.746,0.871,4.183-0.873,5.443C-89.096,423.926-97.603,426.698-106.128,426.729z"/>
			</g>
		</g>
		<g>
			<circle fill="#3E3B3B" cx="-106.921" cy="395.721" r="5.456"/>
		</g>
		<g>
			<g>
				<polygon fill="#3E3B3B" points="-109.455,370.466 -106.921,400.395 -103.215,369.298 				"/>
			</g>
			<g>
				<g>
					<path fill="#3E3B3B" d="M-113.741,376.12c-0.114,0-0.224-0.049-0.297-0.136c-0.091-0.106-0.118-0.255-0.069-0.391l7.114-19.387
						c0.055-0.152,0.195-0.252,0.351-0.254c0.005-0.004,0.01-0.004,0.016-0.004c0.153,0,0.293,0.093,0.356,0.232l7.308,16.467
						c0.046,0.111,0.043,0.232-0.011,0.34c-0.053,0.105-0.154,0.181-0.27,0.206l-14.421,2.922
						C-113.688,376.12-113.716,376.12-113.741,376.12z"/>
				</g>
				<g>
					<path fill="#3E3B3B" d="M-106.627,356.339l7.31,16.468l-14.422,2.923L-106.627,356.339 M-106.627,355.56
						c-0.01,0-0.02,0-0.027,0c-0.318,0.012-0.595,0.214-0.704,0.512l-7.116,19.393c-0.099,0.266-0.043,0.559,0.14,0.774
						c0.148,0.176,0.367,0.273,0.593,0.273c0.049,0,0.103-0.007,0.153-0.019l14.421-2.924c0.231-0.046,0.431-0.194,0.542-0.401
						c0.107-0.213,0.113-0.46,0.019-0.676l-7.31-16.467C-106.04,355.742-106.321,355.56-106.627,355.56L-106.627,355.56z"/>
				</g>
			</g>
		</g>
		<g>
			<g>
				<polygon fill="#3E3B3B" points="-87.893,388.242 -111.87,396.587 -85.632,393.106 				"/>
			</g>
			<g>
				<g>
					<path fill="#3E3B3B" d="M-87.685,397.36c-0.024,0-0.052-0.003-0.073-0.009c-0.098-0.02-0.181-0.086-0.227-0.177l-5.411-11.194
						c-0.056-0.111-0.042-0.237,0.025-0.335c0.06-0.086,0.165-0.143,0.268-0.143c0.013,0,17.402,1.77,17.402,1.77
						c0.134,0.011,0.245,0.102,0.281,0.23c0.04,0.129-0.005,0.269-0.111,0.353l-11.954,9.436
						C-87.542,397.337-87.615,397.36-87.685,397.36z"/>
				</g>
				<g>
					<path fill="#3E3B3B" d="M-93.102,385.834l17.368,1.764l-11.95,9.438L-93.102,385.834 M-93.102,385.178
						c-0.213,0-0.415,0.104-0.538,0.278c-0.138,0.193-0.159,0.452-0.055,0.665l5.416,11.2c0.085,0.177,0.251,0.308,0.442,0.355
						c0.05,0.01,0.1,0.014,0.152,0.014c0.145,0,0.291-0.047,0.406-0.144l11.955-9.434c0.207-0.163,0.3-0.441,0.223-0.701
						c-0.075-0.258-0.299-0.443-0.566-0.472l-17.368-1.762C-93.056,385.178-93.077,385.178-93.102,385.178L-93.102,385.178z"/>
				</g>
			</g>
		</g>
	</g>
	<g>
		<path fill="#F5F6F6" d="M-167.948,564.949c-6.89,2.173-21.329,0.483-26.921-3.526"/>
		<path fill="#3E3B3B" d="M-175.832,569.788c-7.581,0-16.514-1.759-21.308-5.199c-1.75-1.253-2.15-3.688-0.896-5.437
			c1.256-1.75,3.69-2.157,5.438-0.898c4.417,3.171,17.585,4.842,23.477,2.979c2.054-0.643,4.245,0.492,4.89,2.543
			c0.647,2.055-0.493,4.242-2.545,4.892C-169.153,569.415-172.351,569.788-175.832,569.788z"/>
	</g>
	<g>
		<path fill="#F5F6F6" d="M-40.148,565.319c-4.993,5.489-20.195,4.711-27.078,2.766"/>
		<path fill="#3E3B3B" d="M-55.038,573.42c-5.488,0-10.619-0.842-13.248-1.582c-2.073-0.586-3.277-2.741-2.693-4.813
			c0.586-2.069,2.736-3.281,4.81-2.688c6.802,1.918,19.874,1.953,23.137-1.64c1.448-1.595,3.915-1.712,5.506-0.26
			c1.592,1.449,1.707,3.916,0.259,5.507C-41.106,572.167-48.336,573.42-55.038,573.42z"/>
	</g>
</g>
<g>
	<g>
		<polygon fill="#3D3A3A" points="851.533,6.75 856.811,49.455 890.436,46.188 892.904,62.634 922.141,65.686 898.799,58.839 
			895.02,35.801 866.121,42.559 		"/>
		<path fill="#3D3A3A" d="M922.143,66.909c-0.043,0-0.088-0.001-0.127-0.005l-29.238-3.053c-0.557-0.057-1.002-0.483-1.084-1.034
			l-2.295-15.297l-32.471,3.153c-0.631,0.093-1.25-0.407-1.332-1.066L850.32,6.901c-0.074-0.61,0.311-1.18,0.904-1.333
			c0.59-0.16,1.209,0.153,1.443,0.72l14.193,34.842l27.883-6.521c0.328-0.076,0.674-0.014,0.957,0.174
			c0.281,0.188,0.475,0.484,0.527,0.819l3.656,22.278l22.604,6.63c0.607,0.178,0.979,0.79,0.857,1.411
			C923.227,66.5,922.719,66.909,922.143,66.909z M893.973,61.517l14.914,1.556l-10.432-3.06c-0.451-0.133-0.785-0.512-0.863-0.975
			l-3.566-21.748L866.4,43.75c-0.588,0.137-1.186-0.174-1.412-0.729l-11.111-27.278l3.998,32.379l32.441-3.15
			c0.65-0.072,1.23,0.392,1.326,1.034L893.973,61.517z"/>
	</g>
	<g>
		<polygon fill="#3D3A3A" points="1063.275,17.027 1053.891,59.02 1020.736,52.512 1016.689,68.643 987.293,68.848 1011.188,64.294 
			1017.18,41.728 1045.289,51.256 		"/>
		<path fill="#3D3A3A" d="M987.293,70.07c-0.631,0-1.158-0.476-1.219-1.102c-0.061-0.63,0.367-1.204,0.988-1.323l23.141-4.407
			l5.793-21.824c0.086-0.328,0.307-0.604,0.604-0.764c0.295-0.16,0.65-0.19,0.973-0.081l27.117,9.193l17.5-33.304
			c0.285-0.544,0.932-0.791,1.508-0.579c0.574,0.21,0.902,0.815,0.768,1.415l-9.383,41.993c-0.141,0.645-0.766,1.068-1.43,0.934
			l-32.012-6.284l-3.766,15.004c-0.135,0.542-0.623,0.922-1.178,0.925l-29.396,0.204C987.299,70.07,987.297,70.07,987.293,70.07z
			 M1018.027,43.306l-5.656,21.302c-0.123,0.455-0.492,0.801-0.955,0.888l-10.68,2.034l14.996-0.104l3.818-15.211
			c0.156-0.631,0.764-1.034,1.422-0.904l31.984,6.28l7.111-31.84l-13.697,26.074c-0.281,0.533-0.904,0.782-1.477,0.589
			L1018.027,43.306z"/>
	</g>
	<g>
		<path fill="#3D3A3A" d="M944.834,507.35c-0.004,0,0,0-0.004,0c-3.484,0-7.139-0.094-10.855-0.271
			c-19.764-0.959-35.551-4.033-46.922-9.133c-17.152-7.688-20.301-18.577-19.924-26.359c0.51-10.464,7.6-23.646,18.609-34.717
			c-14.488-101.86-36.217-274.679-21.145-301.494c10.119-18.001,58.039-19.4,72.484-19.4c4.818,0,9.744,0.121,14.643,0.357
			l0.391,0.021l0.352,3.282l0.15-3.259l0.318,0.015c34.324,1.669,77.148,9.844,84.881,27.393
			c5.328,12.082,5.887,66.761-49.975,296.944c10.494,12.373,16.639,26.616,16.113,37.5
			C1003.035,497.005,982.039,507.35,944.834,507.35z M937.078,122.499c-35.09,0-61.311,6.31-66.801,16.074
			c-10.225,18.19-1.945,129.968,22.15,299.002l0.232,1.646l-1.195,1.156c-10.383,10.042-17.381,22.419-17.822,31.526
			c-0.408,8.364,5.004,15.127,16.078,20.091c10.477,4.696,25.889,7.662,44.57,8.565c3.611,0.176,7.16,0.266,10.537,0.266
			c19.232,0,51.637-2.975,52.604-22.917c0.463-9.485-5.666-22.893-15.607-34.16l-1.125-1.276l0.404-1.653
			c40.762-167.774,59.256-275.082,50.744-294.405c-5.215-11.83-37.793-21.493-79.225-23.504l-1.217-0.061
			C946.611,122.614,941.791,122.499,937.078,122.499z"/>
	</g>
	<g>
		<path fill="#FFFFFF" d="M940.754,211.901c-1.221,25.189-22.633,44.615-47.816,43.392c-25.189-1.221-44.617-22.631-43.393-47.818
			c1.223-25.187,22.629-44.615,47.82-43.392C922.545,165.304,941.977,186.713,940.754,211.901z"/>
		<path fill="#3D3A3A" d="M895.186,258.539c-0.799,0-1.598-0.021-2.406-0.059c-13.031-0.634-25.035-6.304-33.807-15.966
			c-8.768-9.663-13.248-22.162-12.615-35.195c1.303-26.864,23.994-47.78,51.162-46.423c26.902,1.306,47.729,24.256,46.422,51.159
			C942.676,238.121,921.264,258.539,895.186,258.539z M895.111,167.215c-22.666,0-41.283,17.752-42.383,40.414
			c-0.549,11.331,3.344,22.195,10.971,30.597c7.623,8.401,18.061,13.331,29.391,13.88c23.566,1.134,43.348-17.005,44.477-40.362
			c1.135-23.39-16.971-43.341-40.357-44.478C896.506,167.233,895.809,167.215,895.111,167.215z"/>
	</g>
	<g>
		<circle fill="#FFFFFF" cx="1000.207" cy="214.786" r="45.659"/>
		<path fill="#3D3A3A" d="M1000.244,263.636c-0.801,0-1.598-0.019-2.404-0.058c-13.035-0.633-25.041-6.304-33.811-15.967
			c-8.766-9.663-13.248-22.161-12.617-35.195c1.305-26.86,24.092-47.747,51.158-46.423c26.904,1.306,47.734,24.257,46.43,51.162
			C1047.73,243.219,1026.316,263.636,1000.244,263.636z M1000.17,172.313c-22.668,0-41.283,17.751-42.381,40.413
			c-0.553,11.33,3.344,22.197,10.967,30.6c7.623,8.399,18.061,13.331,29.391,13.879c23.564,1.134,43.346-17.005,44.48-40.361
			c1.135-23.39-16.971-43.343-40.361-44.48C1001.561,172.331,1000.865,172.313,1000.17,172.313z"/>
	</g>
	<g>
		<circle fill="#3D3A3A" cx="899.807" cy="206.24" r="16.715"/>
	</g>
	<g>
		<circle fill="#3D3A3A" cx="997.531" cy="210.983" r="16.715"/>
	</g>
	<g>
		<path fill="#3D3A3A" d="M912.648,282.387c0.197,0,0.4,0.007,0.605,0.014l61.891,3.005c6.748,0.326,11.953,6.06,11.623,12.807
			c-0.316,6.549-5.723,11.638-12.203,11.638c-0.201,0-0.402-0.003-0.605-0.012l-61.895-3.006
			c-6.744-0.327-11.949-6.062-11.623-12.807C900.762,287.479,906.164,282.387,912.648,282.387 M912.648,275.867
			c-10.014,0-18.234,7.838-18.723,17.841c-0.242,5.004,1.477,9.8,4.844,13.514c3.365,3.709,7.977,5.882,12.98,6.127l61.895,3.006
			c0.307,0.013,0.613,0.022,0.92,0.022c10.012,0,18.236-7.84,18.721-17.847c0.242-5.003-1.477-9.797-4.844-13.508
			c-3.367-3.71-7.973-5.888-12.979-6.132l-61.895-3.001C913.26,275.871,912.957,275.867,912.648,275.867L912.648,275.867z"/>
	</g>
	<g>
		
			<rect x="907.732" y="281.488" transform="matrix(-0.9988 -0.049 0.049 -0.9988 1806.4128 635.0057)" fill="#3D3A3A" width="6.523" height="27.721"/>
	</g>
	<g>
		
			<rect x="924.01" y="282.252" transform="matrix(-0.9988 -0.0481 0.0481 -0.9988 1839.2163 636.5121)" fill="#3D3A3A" width="6.523" height="27.721"/>
	</g>
	<g>
		<polygon fill="#3D3A3A" points="946.152,310.933 939.635,310.62 940.979,282.935 947.494,283.247 		"/>
	</g>
	<g>
		<polygon fill="#3D3A3A" points="962.439,311.727 955.924,311.414 957.268,283.723 963.783,284.036 		"/>
	</g>
	<g>
		
			<rect x="972.838" y="284.659" transform="matrix(-0.9988 -0.048 0.048 -0.9988 1936.7517 643.5303)" fill="#3D3A3A" width="6.523" height="27.722"/>
	</g>
	<g>
		<path fill="#3D3A3A" d="M941.57,528.095c-26.49,0-54.754-6.095-64.881-17.315c-1.51-1.67-1.375-4.25,0.293-5.759
			c1.676-1.505,4.256-1.37,5.76,0.298c15.342,16.996,85.52,20.382,102.852,4.952c1.678-1.493,4.258-1.347,5.758,0.335
			c1.496,1.686,1.348,4.262-0.336,5.758C982.045,524.341,962.354,528.095,941.57,528.095z"/>
	</g>
	<g>
		<path fill="#3D3A3A" d="M939.59,550.922c-23.727,0-49.043-5.46-58.113-15.51c-1.508-1.672-1.375-4.249,0.295-5.758
			c1.674-1.509,4.254-1.371,5.758,0.298c13.16,14.579,76.029,17.608,90.908,4.377c1.68-1.494,4.256-1.352,5.758,0.339
			c1.494,1.682,1.346,4.259-0.34,5.755C975.828,547.561,958.197,550.922,939.59,550.922z"/>
	</g>
	<g>
		<path fill="#3D3A3A" d="M936.463,573.148c-17.791,0-36.689-4.208-43.715-11.992c-1.51-1.673-1.377-4.25,0.295-5.761
			c1.676-1.503,4.252-1.369,5.758,0.299c9.543,10.57,55.137,12.758,65.932,3.162c1.684-1.494,4.26-1.351,5.758,0.339
			c1.496,1.683,1.346,4.259-0.34,5.756C963.885,570.52,950.52,573.148,936.463,573.148z"/>
	</g>
	<g>
		<circle fill="#3D3A3A" cx="1027.406" cy="285.087" r="16.715"/>
	</g>
	<g>
		<circle fill="#3D3A3A" cx="1081.574" cy="337.917" r="12.23"/>
	</g>
	<g>
		<polygon fill="#3D3A3A" points="1086.895,388.067 1075.508,387.319 1078.479,341.955 1030.48,295.659 1038.402,287.442 
			1090.217,337.416 		"/>
	</g>
	<g>
		<g>
			<path fill="#FFFFFF" d="M1100.928,429.23c-1.559-0.077-2.803-1.323-2.875-2.878c-0.729-15.233-7.428-25.378-17.064-25.844
				c-0.227-0.014-0.449-0.021-0.668-0.021c-9.301,0-16.691,9.457-18.82,24.092c-0.219,1.494-1.5,2.586-2.99,2.586
				c-0.053,0-0.1,0-0.152-0.003c-1.551-0.073-2.795-1.321-2.873-2.874c-0.102-2.147-0.102-4.31,0-6.413
				c0.979-20.175,10.865-33.204,25.188-33.204c0.359,0,0.723,0.005,1.084,0.023c7.006,0.339,13.131,3.92,17.244,10.084
				c4.221,6.337,6.193,15.148,5.689,25.48c-0.102,2.11-0.314,4.259-0.623,6.385c-0.219,1.495-1.496,2.587-2.988,2.587
				C1101.027,429.23,1100.979,429.23,1100.928,429.23z"/>
		</g>
		<g>
			<g>
				<path fill="#3D3A3A" d="M1080.67,387.69c0.311,0,0.623,0.007,0.938,0.022c11.918,0.582,21.055,11.938,20.059,32.399
					c-0.1,2.086-0.305,4.119-0.592,6.098c-0.846-17.639-9.234-28.2-19.941-28.727c-0.273-0.013-0.547-0.019-0.814-0.019
					c-10.365,0-19.332,9.647-21.814,26.676c-0.096-1.994-0.102-4.041,0-6.118C1059.471,398.094,1069.158,387.69,1080.67,387.69
					 M1080.67,381.645L1080.67,381.645c-7.719,0-14.75,3.556-19.803,10.014c-4.979,6.368-7.883,15.385-8.402,26.071
					c-0.107,2.201-0.107,4.46,0,6.702c0.148,3.111,2.635,5.598,5.746,5.752c0.1,0.003,0.197,0.008,0.297,0.008
					c2.986,0,5.545-2.194,5.979-5.174c1.906-13.065,8.121-21.505,15.832-21.505c0.172,0,0.346,0.007,0.521,0.012
					c7.852,0.382,13.555,9.611,14.191,22.973c0.152,3.11,2.639,5.599,5.748,5.752c0.098,0.004,0.199,0.006,0.299,0.006
					c2.98,0,5.545-2.191,5.977-5.174c0.324-2.225,0.543-4.469,0.65-6.675c0.533-10.985-1.607-20.429-6.195-27.304
					c-4.66-6.983-11.623-11.041-19.611-11.429C1081.494,381.655,1081.076,381.645,1080.67,381.645L1080.67,381.645L1080.67,381.645z
					"/>
			</g>
		</g>
	</g>
	<g>
		<g>
			<circle fill="#3D3A3A" cx="862.49" cy="277.081" r="16.713"/>
		</g>
		<g>
			<circle fill="#3D3A3A" cx="803.459" cy="324.419" r="12.228"/>
		</g>
		<g>
			<polygon fill="#3D3A3A" points="804.717,374.176 793.305,373.818 794.908,323.083 851.318,278.362 858.408,287.308 
				806.15,328.735 			"/>
		</g>
		<g>
			<g>
				<path fill="#FFFFFF" d="M817.924,415.495c-1.557-0.075-2.797-1.323-2.873-2.875c-0.73-15.236-7.428-25.381-17.068-25.85
					c-0.223-0.012-0.445-0.017-0.67-0.017c-9.301,0-16.686,9.457-18.818,24.087c-0.217,1.497-1.496,2.589-2.99,2.589
					c-0.047,0-0.098,0-0.146-0.002c-1.557-0.073-2.799-1.321-2.873-2.874c-0.104-2.148-0.104-4.303-0.002-6.413
					c0.979-20.174,10.869-33.205,25.186-33.205c0.359,0,0.721,0.006,1.086,0.023c12.244,0.597,24.082,11.82,22.932,35.565
					c-0.102,2.113-0.312,4.262-0.623,6.389c-0.215,1.49-1.496,2.582-2.988,2.582C818.023,415.495,817.973,415.495,817.924,415.495z"
					/>
			</g>
			<g>
				<g>
					<path fill="#3D3A3A" d="M797.668,373.954c0.311,0,0.623,0.008,0.936,0.024c11.918,0.581,21.053,11.938,20.059,32.399
						c-0.1,2.086-0.303,4.116-0.592,6.098c-0.844-17.64-9.232-28.202-19.939-28.727c-0.275-0.013-0.547-0.02-0.818-0.02
						c-10.365,0-19.328,9.647-21.812,26.675c-0.094-1.994-0.102-4.039,0-6.118C776.467,384.359,786.154,373.954,797.668,373.954
						 M797.668,367.909c-7.721,0-14.752,3.557-19.801,10.014c-4.98,6.369-7.887,15.385-8.404,26.07
						c-0.109,2.206-0.109,4.463,0,6.706c0.15,3.109,2.637,5.595,5.748,5.75c0.1,0,0.197,0.007,0.293,0.007
						c2.988,0,5.547-2.193,5.984-5.174c1.9-13.065,8.113-21.503,15.824-21.503c0.176,0,0.348,0.005,0.523,0.012
						c7.85,0.38,13.557,9.611,14.191,22.971c0.152,3.112,2.639,5.6,5.748,5.753c0.1,0.003,0.199,0.007,0.299,0.007
						c2.982,0,5.543-2.193,5.977-5.175c0.328-2.217,0.543-4.466,0.65-6.675c1.252-25.832-12.057-38.063-25.805-38.733
						C798.488,367.919,798.074,367.909,797.668,367.909L797.668,367.909z"/>
				</g>
			</g>
		</g>
	</g>
	<g>
		<path fill="#3D3A3A" d="M971.92,70.15c0.449-9.221-6.664-17.057-15.887-17.504c-9.219-0.447-17.055,6.664-17.502,15.884
			c-0.365,7.52,4.299,14.115,11.031,16.538l-1.664,34.345l9.773,0.475l1.666-34.346C966.275,83.784,971.557,77.673,971.92,70.15z"/>
	</g>
	<g>
		<polygon fill="#3D3A3A" points="957.598,-50.957 980.725,-22.898 961.703,-0.964 969.135,14.09 945.975,20.314 959.766,38.942 
			935.547,16.543 957.893,10.282 951.391,-7.18 970.834,-20.929 		"/>
		<path fill="#3D3A3A" d="M959.766,40.165c-0.299,0-0.596-0.108-0.832-0.324l-24.217-22.4c-0.326-0.3-0.463-0.755-0.359-1.184
			c0.104-0.431,0.434-0.772,0.857-0.891l21.064-5.903l-6.037-16.215c-0.189-0.521-0.014-1.105,0.441-1.427l18.627-13.172
			l-12.832-29.113c-0.248-0.559-0.043-1.215,0.475-1.535c0.525-0.319,1.197-0.21,1.588,0.263l23.127,28.059
			c0.381,0.462,0.371,1.128-0.02,1.58L963.16-0.776l7.072,14.325c0.164,0.329,0.17,0.712,0.02,1.046
			c-0.154,0.334-0.443,0.581-0.799,0.677l-21.426,5.756l12.721,17.187c0.375,0.507,0.303,1.216-0.168,1.638
			C960.35,40.061,960.055,40.165,959.766,40.165z M937.982,17.13l13.047,12.068l-6.035-8.157c-0.244-0.324-0.309-0.748-0.174-1.129
			c0.131-0.381,0.449-0.672,0.84-0.778l21.721-5.836l-6.775-13.719c-0.219-0.442-0.15-0.972,0.172-1.343l18.346-21.155
			l-16.834-20.42l9.662,21.917c0.234,0.531,0.062,1.157-0.412,1.493L952.865-6.724l6.172,16.578
			c0.119,0.322,0.096,0.676-0.057,0.981c-0.158,0.306-0.432,0.531-0.762,0.624L937.982,17.13z"/>
	</g>
</g>
<g>
	<g>
		<g>
			<path fill="#FFFFFF" d="M416.152,485.735c-14.186,0-27.563-1.533-37.663-4.315c-11.652-3.215-17.562-7.642-17.562-13.157
				c0-0.026,0-46.164,0-46.164c0-1.725,1.42-3.124,3.168-3.124c1.071,0,2.04,0.526,2.618,1.354
				c3.349,2.101,24.06,7.588,49.441,7.588c25.367,0,46.074-5.479,49.434-7.588c0.578-0.827,1.541-1.354,2.611-1.354
				c1.748,0,3.182,1.399,3.182,3.124c0,0,0,46.138,0,46.164c0,5.519-5.91,9.942-17.564,13.157
				C443.713,484.202,430.338,485.735,416.152,485.735z"/>
		</g>
		<g>
			<path fill="#3D3A3A" d="M468.209,422.097v46.001h-0.008c0.002,0.057,0.008,0.113,0.008,0.165
				c0,7.925-23.307,14.351-52.057,14.351c-28.749,0-52.057-6.426-52.057-14.351c0-0.052,0.004-0.108,0.007-0.165h-0.007v-46.001
				h0.01c0.481,2.225,23.597,8.943,52.047,8.943c28.453,0,51.568-6.719,52.047-8.943H468.209 M468.209,415.849h-0.012
				c-1.814,0-3.477,0.761-4.645,1.998c-4.09,1.948-23.262,6.941-47.4,6.941c-24.143,0-43.314-4.994-47.403-6.941
				c-1.169-1.236-2.83-1.998-4.645-1.998c-3.5,0-6.347,2.802-6.347,6.25v46c0,0.026,0,0.057,0,0.081c0,0.025,0,0.057,0,0.083
				c0,7.093,6.686,12.529,19.877,16.165c10.373,2.856,24.052,4.434,38.517,4.434s28.141-1.577,38.516-4.434
				c13.191-3.636,19.881-9.072,19.881-16.165c0-0.026,0-0.06,0-0.083c0-0.024,0-0.055,0-0.081v-46
				C474.549,418.65,471.709,415.849,468.209,415.849L468.209,415.849z"/>
		</g>
	</g>
	<g>
		<path fill="#3D3A3A" d="M415.91,511.954c-23.15,0-46.249-4.587-55.492-13.757c-1.546-1.527-1.537-4.003,0.014-5.523
			c1.553-1.52,4.064-1.516,5.602,0.015c15.689,15.557,83.958,15.537,100.06-0.035c1.568-1.51,4.07-1.479,5.605,0.055
			c1.531,1.541,1.504,4.017-0.057,5.527C462.176,507.383,439.018,511.954,415.91,511.954z"/>
	</g>
	<g>
		<path fill="#3D3A3A" d="M415.93,533.873c-20.734,0-41.422-4.107-49.704-12.322c-1.541-1.526-1.537-4.004,0.017-5.522
			c1.552-1.522,4.061-1.517,5.603,0.014c13.457,13.348,74.624,13.32,88.436-0.032c1.559-1.519,4.07-1.488,5.602,0.053
			c1.535,1.539,1.51,4.012-0.055,5.523C457.357,529.778,436.621,533.873,415.93,533.873z"/>
	</g>
	<g>
		<path fill="#3D3A3A" d="M415.959,555.247c-15.587,0-31.146-3.195-37.583-9.58c-1.547-1.529-1.538-4.004,0.014-5.523
			c1.553-1.522,4.062-1.516,5.602,0.015c9.761,9.679,54.124,9.653,64.141-0.033c1.561-1.513,4.072-1.485,5.604,0.052
			c1.535,1.54,1.508,4.014-0.055,5.524C447.1,552.068,431.516,555.247,415.959,555.247z"/>
	</g>
	<g>
		<g>
			<path fill="#FFFFFF" d="M415.988,281.908c-29.854,0-57.983-3.637-79.21-10.244c-22.483-6.997-34.516-16.357-34.826-27.083
				c-0.006-0.084-0.009-0.172-0.009-0.26V122.441c0-0.088,0.003-0.177,0.009-0.263c0.313-10.724,12.347-20.085,34.826-27.082
				c21.228-6.607,49.358-10.244,79.21-10.244c29.854,0,57.984,3.637,79.209,10.244c22.486,6.997,34.518,16.358,34.826,27.082
				c0.006,0.087,0.01,0.175,0.01,0.263v121.88c0,0.087-0.004,0.177-0.01,0.262c-0.311,10.724-12.346,20.085-34.826,27.081
				C473.973,278.272,445.842,281.908,415.988,281.908z"/>
		</g>
		<g>
			<path fill="#3D3A3A" d="M415.988,87.933c61.098,0,110.652,15.437,110.92,34.509h0.004v121.88h-0.004
				c-0.268,19.073-49.822,34.505-110.92,34.505c-61.094,0-110.649-15.434-110.917-34.505h-0.005v-121.88h0.005
				C305.339,103.369,354.894,87.933,415.988,87.933 M415.988,81.771c-30.164,0-58.629,3.688-80.152,10.389
				c-23.814,7.411-36.6,17.728-37.003,29.852c-0.009,0.142-0.016,0.285-0.016,0.43v121.88c0,0.144,0.006,0.287,0.016,0.429
				c0.404,12.123,13.188,22.44,37.003,29.854c21.523,6.698,49.989,10.387,80.152,10.387c30.164,0,58.629-3.689,80.152-10.387
				c23.818-7.414,36.604-17.731,37.008-29.854c0.008-0.142,0.012-0.287,0.012-0.429v-121.88c0-0.145-0.004-0.289-0.012-0.432
				c-0.404-12.123-13.189-22.439-37.008-29.85C474.617,85.459,446.152,81.771,415.988,81.771L415.988,81.771z"/>
		</g>
	</g>
	<g>
		<g>
			<path fill="#FFFFFF" d="M415.988,247.691c-42.772,0-88.365-10.008-88.977-28.555c-0.007-0.086-0.009-0.171-0.009-0.261V144.22
				c0-1.063,0.509-2.065,1.372-2.701c0.599-0.441,1.319-0.669,2.044-0.669c0.327,0,0.653,0.043,0.977,0.138
				c22.681,6.645,52.728,10.302,84.592,10.302c31.867,0,61.912-3.658,84.596-10.302c0.322-0.094,0.648-0.138,0.975-0.138
				c0.727,0,1.447,0.228,2.045,0.669c0.863,0.635,1.371,1.638,1.371,2.701v74.655c0,0.1-0.002,0.196-0.01,0.294
				C504.299,237.696,458.734,247.691,415.988,247.691z"/>
		</g>
		<g>
			<path fill="#3D3A3A" d="M501.559,144.22v74.655h-0.008c-0.203,14.063-38.432,25.445-85.562,25.445
				c-47.133,0-85.362-11.382-85.564-25.445h-0.007V144.22c22.051,6.458,52.251,10.442,85.571,10.442
				C449.309,154.663,479.506,150.678,501.559,144.22 M501.559,137.479c-0.652,0-1.303,0.091-1.945,0.277
				c-22.381,6.555-52.076,10.163-83.625,10.163c-31.544,0-61.244-3.608-83.62-10.163c-0.64-0.186-1.295-0.277-1.948-0.277
				c-1.452,0-2.89,0.458-4.087,1.337c-1.731,1.272-2.746,3.275-2.746,5.403v74.655c0,0.148,0.003,0.297,0.012,0.441
				c0.269,7.04,5.787,16.795,30.035,24.009c16.77,4.988,38.915,7.737,62.356,7.737c23.441,0,45.586-2.749,62.355-7.737
				c24.189-7.195,29.74-16.921,30.035-23.958c0.012-0.163,0.014-0.325,0.014-0.493v-74.655c0-2.128-1.016-4.131-2.746-5.403
				C504.455,137.937,503.016,137.479,501.559,137.479L501.559,137.479z"/>
		</g>
	</g>
	<g>
		<g>
			<path fill="#3D3A3A" d="M404.348,203.667c-1.982,12.359-10.245,21.342-18.455,20.062c-8.215-1.279-13.267-12.335-11.286-24.695
				c1.981-12.36,10.243-21.344,18.457-20.063C401.275,180.251,406.326,191.305,404.348,203.667z"/>
		</g>
		<g>
			<path fill="#3D3A3A" d="M439.496,178.886c8.238-1.106,16.307,8.048,18.02,20.448c1.713,12.399-3.578,23.349-11.816,24.456
				c-8.238,1.106-16.305-8.048-18.018-20.448C425.967,190.942,431.258,179.994,439.496,178.886z"/>
		</g>
	</g>
	<g>
		<g>
			<path fill="#FFFFFF" d="M416.152,446.165c-32.906,0-63.887-4.016-87.235-11.31c-24.473-7.65-37.951-18.284-37.951-29.944
				c0-0.082,0.003-0.165,0.006-0.251c-0.003-0.062-0.006-0.123-0.006-0.185V282.249c0-1.727,1.42-3.124,3.173-3.124
				c1.364,0,2.578,0.859,3.02,2.099c4.229,4.818,54.237,21.657,118.995,21.657c64.748,0,114.756-16.833,118.996-21.655
				c0.434-1.242,1.629-2.101,2.994-2.101c1.75,0,3.195,1.397,3.195,3.124v122.227c0,0.062-0.004,0.121-0.008,0.179
				c0.004,0.085,0.008,0.17,0.008,0.257c0,11.659-13.479,22.293-37.949,29.944C480.041,442.149,449.061,446.165,416.152,446.165z"/>
		</g>
		<g>
			<path fill="#3D3A3A" d="M538.168,282.249v122.227h-0.018c0.004,0.144,0.018,0.291,0.018,0.436
				c0,21.06-54.629,38.13-122.016,38.13c-67.389,0-122.013-17.07-122.013-38.13c0-0.145,0.011-0.292,0.016-0.436h-0.016V282.249
				h0.025c1.122,5.907,55.304,23.76,121.988,23.76c66.684,0,120.867-17.854,121.99-23.76H538.168 M538.168,276h-0.023
				c-2.387,0-4.508,1.312-5.59,3.296c-6.189,4.663-52.486,20.461-116.402,20.461c-34.099,0-62.234-4.632-79.837-8.518
				c-22.201-4.898-33.928-10.022-36.573-11.953c-1.079-1.98-3.196-3.286-5.579-3.286c-3.501,0-6.366,2.798-6.366,6.25v122.227
				c0,0.069,0,0.136,0.003,0.205c-0.003,0.077-0.003,0.151-0.003,0.23c0,13.327,13.888,24.713,40.162,32.922
				c23.646,7.389,54.97,11.457,88.193,11.457c33.225,0,64.543-4.068,88.193-11.457c26.273-8.209,40.158-19.595,40.158-32.922
				c0-0.079,0-0.155,0-0.233c0-0.066,0-0.133,0-0.202V282.249C544.504,278.798,541.666,276,538.168,276L538.168,276z"/>
		</g>
	</g>
	<g>
		<g>
			<path fill="#FFFFFF" d="M601.709,401.12c-1.805,0-3.521-0.533-4.961-1.545c-1.785-1.257-2.949-3.16-3.193-5.224
				c-0.242-2.052,0.404-4.06,1.818-5.651c20.586-23.198,15.535-57.312,0.326-77.639c-10.162-13.582-24.082-21.062-39.189-21.062
				c-3.975,0-8.039,0.512-12.092,1.523c-0.703,0.173-1.418,0.261-2.141,0.261c-3.619,0-6.857-2.247-7.873-5.466
				c-0.598-1.905-0.377-3.919,0.619-5.67c1.059-1.862,2.926-3.245,5.119-3.791c5.395-1.344,10.857-2.025,16.242-2.025
				c20.738,0,39.494,9.792,52.797,27.572c10.139,13.556,15.924,30.344,16.285,47.275c0.395,18.556-5.629,35.383-17.42,48.67
				C606.486,400.108,604.176,401.12,601.709,401.12z"/>
		</g>
		<g>
			<path fill="#3D3A3A" d="M556.387,277.842c19.459-0.002,37.562,9.276,50.34,26.354c9.773,13.06,15.342,29.232,15.691,45.549
				c0.377,17.787-5.385,33.914-16.666,46.621c-1.021,1.146-2.525,1.745-4.045,1.745c-1.119,0-2.244-0.321-3.191-0.986
				c-2.23-1.569-2.613-4.453-0.848-6.439c21.633-24.383,16.4-60.143,0.482-81.408c-10.873-14.536-25.602-22.285-41.643-22.285
				c-4.205,0-8.5,0.532-12.84,1.613c-0.465,0.114-0.932,0.171-1.393,0.171c-2.254,0-4.318-1.326-4.959-3.351
				c-0.768-2.437,0.832-4.968,3.572-5.651C546.102,278.477,551.291,277.842,556.387,277.842 M556.393,271.822v6.019l-0.004-6.019
				c-5.639,0-11.355,0.714-16.99,2.119c-3.004,0.748-5.57,2.656-7.035,5.235c-1.412,2.481-1.721,5.332-0.871,8.034
				c1.406,4.465,5.84,7.585,10.787,7.585c0.973,0,1.941-0.12,2.885-0.354c3.811-0.949,7.625-1.431,11.346-1.431
				c14.119,0.001,27.164,7.046,36.732,19.837c14.502,19.383,19.371,51.859-0.166,73.876c-1.959,2.204-2.889,5.112-2.551,7.975
				c0.342,2.911,1.965,5.576,4.445,7.325c1.963,1.379,4.295,2.104,6.736,2.104c3.348,0,6.492-1.382,8.639-3.797
				c12.297-13.859,18.582-31.394,18.176-50.714c-0.375-17.545-6.369-34.948-16.881-48.997c-6.879-9.191-15.197-16.367-24.729-21.327
				C577.395,274.334,567.125,271.822,556.393,271.822L556.393,271.822z"/>
		</g>
	</g>
	<g>
		<ellipse fill="#3D3A3A" cx="596.102" cy="399.797" rx="17.432" ry="17.19"/>
	</g>
	<g>
		<path fill="#3D3A3A" d="M433.477,575.192c0,4.965-7.805,8.984-17.434,8.984c-9.627,0-17.428-4.02-17.428-8.984
			c0-4.961,7.801-8.986,17.428-8.986C425.672,566.206,433.477,570.231,433.477,575.192z"/>
	</g>
	<g>
		<g>
			<path fill="#FFFFFF" d="M216.86,386.562c-0.432,0-0.874-0.029-1.302-0.091c-2.448-0.351-4.611-1.649-5.931-3.563
				c-9.857-14.347-13.489-31.255-10.5-48.908c2.728-16.097,10.82-31.288,22.792-42.772c13.064-12.537,29.7-19.438,46.843-19.438
				c8.476,0,16.919,1.643,25.106,4.881c2.172,0.858,3.868,2.511,4.657,4.536c0.72,1.855,0.634,3.848-0.246,5.614
				c-1.299,2.603-4.19,4.288-7.378,4.288c-1.16,0-2.293-0.217-3.375-0.644c-6.09-2.411-12.304-3.631-18.466-3.631
				c-12.695,0-24.78,5.156-34.948,14.912c-17.788,17.07-27.495,48.594-10.444,73.396c1.196,1.743,1.582,3.874,1.05,5.839
				c-0.543,2.021-2.007,3.74-4.013,4.716c-1.175,0.566-2.5,0.866-3.84,0.866L216.86,386.562L216.86,386.562z"/>
		</g>
		<g>
			<path fill="#3D3A3A" d="M268.762,274.913c7.957,0,16.03,1.532,23.926,4.656c2.616,1.036,3.845,3.665,2.747,5.874
				c-0.799,1.602-2.601,2.538-4.533,2.538c-0.728,0-1.477-0.133-2.194-0.416c-6.531-2.587-13.141-3.858-19.647-3.858
				c-13.372,0-26.299,5.38-37.157,15.799c-18.712,17.953-28.878,51.177-10.861,77.388c1.469,2.138,0.692,4.822-1.737,5.998
				c-0.767,0.367-1.605,0.545-2.442,0.545c-0.289,0-0.572-0.019-0.855-0.062c-1.504-0.213-2.912-0.992-3.758-2.223
				c-9.393-13.667-12.851-29.793-9.999-46.64c2.617-15.448,10.386-30.022,21.875-41.046
				C236.843,281.269,252.558,274.913,268.762,274.913 M268.762,268.662c-17.976,0-35.395,7.218-49.057,20.326
				c-12.449,11.944-20.869,27.745-23.705,44.497c-3.125,18.46,0.678,36.155,11.004,51.172c1.82,2.648,4.772,4.435,8.099,4.908
				c0.578,0.08,1.172,0.121,1.76,0.121c1.817,0,3.631-0.41,5.235-1.185c2.834-1.372,4.902-3.819,5.682-6.718
				c0.768-2.842,0.221-5.904-1.492-8.396c-16.081-23.398-6.831-53.221,10.035-69.403c9.562-9.176,20.884-14.027,32.736-14.027
				c5.76,0,11.575,1.146,17.286,3.407c1.458,0.577,2.989,0.867,4.555,0.867c4.452,0,8.369-2.313,10.221-6.037
				c1.273-2.555,1.401-5.433,0.36-8.11c-1.099-2.831-3.448-5.135-6.434-6.315C286.485,270.378,277.642,268.662,268.762,268.662
				L268.762,268.662z"/>
		</g>
	</g>
	<g>
		<path fill="#3D3A3A" d="M207.878,389.699c-0.76,9.46,6.4,17.743,15.998,18.49c9.594,0.755,17.994-6.311,18.755-15.769
			c0.761-9.465-6.4-17.745-15.998-18.499C217.038,373.172,208.639,380.232,207.878,389.699z"/>
	</g>
	<g>
		<g>
			<path fill="#3D3A3A" d="M411.234,98.054c-0.656,0-1.189-0.525-1.189-1.173V64.779c-6.908-2.459-11.486-8.846-11.486-16.16
				c0-9.479,7.82-17.189,17.429-17.189c9.611,0,17.432,7.71,17.432,17.189c0,7.314-4.582,13.701-11.488,16.16v32.103
				c0,0.647-0.535,1.172-1.191,1.172L411.234,98.054L411.234,98.054z"/>
		</g>
		<g>
			<path fill="#3D3A3A" d="M415.988,32.603c8.969,0,16.242,7.169,16.242,16.016c0,7.213-4.838,13.31-11.49,15.313v32.949h-9.506
				V63.932c-6.652-2.003-11.49-8.101-11.49-15.313C399.746,39.772,407.02,32.603,415.988,32.603 M415.988,30.258
				c-10.268,0-18.621,8.236-18.621,18.361c0,7.531,4.55,14.145,11.49,16.963v31.3c0,1.296,1.066,2.343,2.377,2.343h9.506
				c1.316,0,2.379-1.048,2.379-2.343v-31.3c6.938-2.817,11.486-9.432,11.486-16.963C434.605,38.494,426.256,30.258,415.988,30.258
				L415.988,30.258z"/>
		</g>
	</g>
	<g>
		<g>
			<path fill="#FFFFFF" d="M416.152,418.183c-46.471,0-96.792-10.187-97.442-26.658c-0.006-0.067-0.009-0.14-0.009-0.215v-67.396
				c0-0.718,0.334-1.397,0.908-1.842c0.423-0.327,0.94-0.501,1.47-0.501c0.184,0,0.37,0.02,0.555,0.063
				c32.643,7.768,64.438,11.704,94.519,11.704c30.076,0,61.875-3.937,94.52-11.704c0.186-0.044,0.371-0.063,0.559-0.063
				c0.527,0,1.047,0.173,1.469,0.501c0.572,0.444,0.908,1.124,0.908,1.842v67.396c0,0.088-0.008,0.177-0.016,0.266
				C512.838,408.02,462.574,418.183,416.152,418.183z"/>
		</g>
		<g>
			<path fill="#3D3A3A" d="M511.23,323.914v67.396h-0.012c-0.223,12.696-42.701,24.533-95.066,24.533
				c-52.368,0-94.847-11.837-95.071-24.533h-0.005v-67.396c24.499,5.829,58.056,11.769,95.076,11.769
				C453.172,335.683,486.73,329.743,511.23,323.914 M511.23,319.227c-0.373,0-0.746,0.042-1.117,0.128
				c-32.459,7.726-64.074,11.642-93.961,11.642c-29.889,0-61.501-3.916-93.96-11.642c-0.368-0.086-0.745-0.128-1.114-0.128
				c-1.056,0-2.096,0.348-2.943,1.005c-1.143,0.889-1.812,2.246-1.812,3.683v67.396c0,0.121,0.005,0.241,0.014,0.36
				c0.376,8.638,10.971,15.767,31.496,21.194c18.694,4.943,42.957,7.665,68.322,7.665c25.359,0,49.625-2.723,68.316-7.665
				c20.467-5.414,31.061-12.518,31.494-21.112c0.012-0.146,0.02-0.295,0.02-0.442v-67.396c0-1.436-0.668-2.794-1.816-3.683
				C513.324,319.574,512.283,319.227,511.23,319.227L511.23,319.227z"/>
		</g>
	</g>
	<g>
		<g>
			<line fill="none" x1="380.101" y1="445.89" x2="380.101" y2="466.205"/>
			<path fill="#3D3A3A" d="M380.101,468.548c-1.312,0-2.376-1.048-2.376-2.343v-20.314c0-1.296,1.064-2.345,2.376-2.345
				c1.312,0,2.377,1.049,2.377,2.345v20.314C382.478,467.5,381.416,468.548,380.101,468.548z"/>
		</g>
		<g>
			<line fill="none" x1="452.205" y1="445.89" x2="452.205" y2="466.205"/>
			<path fill="#3D3A3A" d="M452.205,468.548c-1.316,0-2.377-1.048-2.377-2.343v-20.314c0-1.296,1.061-2.345,2.377-2.345
				c1.312,0,2.375,1.049,2.375,2.345v20.314C454.58,467.5,453.518,468.548,452.205,468.548z"/>
		</g>
		<g>
			<line fill="none" x1="398.126" y1="447.452" x2="398.126" y2="472.453"/>
			<path fill="#3D3A3A" d="M398.126,474.797c-1.312,0-2.375-1.046-2.375-2.344v-25.001c0-1.295,1.063-2.345,2.375-2.345
				c1.313,0,2.377,1.05,2.377,2.345v25.001C400.504,473.751,399.44,474.797,398.126,474.797z"/>
		</g>
		<g>
			<line fill="none" x1="416.152" y1="447.452" x2="416.152" y2="475.581"/>
			<path fill="#3D3A3A" d="M416.152,477.925c-1.314,0-2.375-1.047-2.375-2.342v-28.131c0-1.295,1.061-2.345,2.375-2.345
				s2.377,1.05,2.377,2.345v28.129C418.529,476.877,417.467,477.925,416.152,477.925z"/>
		</g>
		<g>
			<line fill="none" x1="434.176" y1="447.452" x2="434.176" y2="472.453"/>
			<path fill="#3D3A3A" d="M434.176,474.797c-1.314,0-2.377-1.046-2.377-2.344v-25.001c0-1.295,1.062-2.345,2.377-2.345
				c1.312,0,2.377,1.05,2.377,2.345v25.001C436.553,473.751,435.488,474.797,434.176,474.797z"/>
		</g>
	</g>
	<g>
		<g>
			<ellipse fill="#3D3A3A" cx="495.65" cy="388.694" rx="5.348" ry="5.274"/>
		</g>
		<g>
			<path fill="#3D3A3A" d="M480.793,394.944c0,2.91-2.396,5.275-5.348,5.275c-2.955,0-5.348-2.365-5.348-5.275
				c0-2.916,2.393-5.277,5.348-5.277C478.396,389.667,480.793,392.03,480.793,394.944z"/>
		</g>
		<g>
			<path fill="#3D3A3A" d="M460.59,398.851c0,2.912-2.396,5.271-5.348,5.271c-2.953,0-5.35-2.358-5.35-5.271
				c0-2.915,2.396-5.274,5.35-5.274C458.193,393.575,460.59,395.937,460.59,398.851z"/>
		</g>
	</g>
	<g>
		<path fill="#3D3A3A" d="M331.046,341.815c0,2.915,2.396,5.275,5.351,5.275c2.951,0,5.345-2.36,5.345-5.275
			c0-2.91-2.395-5.273-5.345-5.273C333.442,336.542,331.046,338.905,331.046,341.815z"/>
	</g>
	<g>
		<path fill="#3D3A3A" d="M351.251,346.503c0,2.91,2.394,5.275,5.347,5.275c2.95,0,5.347-2.365,5.347-5.275
			s-2.396-5.272-5.347-5.272C353.645,341.23,351.251,343.593,351.251,346.503z"/>
	</g>
	<g>
		<path fill="#3D3A3A" d="M371.456,348.85c0,2.911,2.393,5.27,5.348,5.27c2.951,0,5.349-2.358,5.349-5.27
			c0-2.914-2.397-5.276-5.349-5.276C373.848,343.574,371.456,345.937,371.456,348.85z"/>
	</g>
	<g>
		<g>
			<path fill="#3D3A3A" d="M355.614,399.012c-11.426-0.387-23.61-5.336-23.846-9.655c-0.003-0.032-0.003-0.062-0.003-0.093v-30.717
				c0-0.264,0.132-0.506,0.354-0.652c0.134-0.086,0.283-0.13,0.438-0.13c0.102,0,0.209,0.021,0.309,0.063
				c6.8,2.843,14.711,4.834,22.866,5.766c0.401,0.043,0.702,0.377,0.702,0.771v33.87c0,0.212-0.086,0.414-0.242,0.562
				c-0.148,0.141-0.344,0.216-0.55,0.216C355.632,399.012,355.624,399.012,355.614,399.012z"/>
		</g>
		<g>
			<path fill="#3D3A3A" d="M332.557,358.546c6.634,2.773,14.463,4.836,23.084,5.815v33.871c-11.498-0.393-23.003-5.466-23.084-8.97
				l0,0V358.546 M332.557,356.983c-0.308,0-0.612,0.089-0.877,0.262c-0.44,0.288-0.707,0.777-0.707,1.302v30.717
				c0,0.052,0,0.103,0.006,0.157c0.329,5.161,13.714,10.002,24.608,10.375c0.019,0,0.037,0,0.055,0c0.411,0,0.805-0.159,1.1-0.442
				c0.312-0.293,0.486-0.697,0.486-1.12v-33.871c0-0.789-0.603-1.457-1.402-1.548c-8.082-0.92-15.914-2.896-22.65-5.709
				C332.975,357.023,332.766,356.983,332.557,356.983L332.557,356.983z"/>
		</g>
	</g>
	<g>
		<g>
			<path fill="#3D3A3A" d="M418.459,381.716c-5.256,0-10.684-0.172-16.146-0.512c-0.381-0.024-0.684-0.337-0.684-0.721v-15.624
				c0-0.198,0.084-0.388,0.23-0.525c0.137-0.122,0.314-0.193,0.5-0.193c0.016,0,0.031,0,0.047,0
				c5.432,0.337,10.834,0.508,16.053,0.508c25.67,0,52.811-3.952,80.67-11.743c0.066-0.019,0.129-0.027,0.199-0.027
				c0.156,0,0.314,0.049,0.441,0.144c0.178,0.14,0.289,0.351,0.289,0.576v15.625c0,0.325-0.219,0.605-0.533,0.694
				C471.541,377.746,444.264,381.716,418.459,381.716z"/>
		</g>
		<g>
			<path fill="#3D3A3A" d="M499.328,353.598v15.625c-20.84,5.83-49.383,11.771-80.871,11.771c-5.465,0-10.836-0.186-16.1-0.51
				v-15.624c5.264,0.326,10.635,0.508,16.1,0.508C449.945,365.367,478.488,359.426,499.328,353.598 M499.328,352.158
				c-0.135,0-0.27,0.021-0.4,0.056c-27.791,7.769-54.867,11.714-80.471,11.714c-5.207,0-10.59-0.169-16.006-0.506
				c-0.031,0-0.062,0-0.094,0c-0.371,0-0.727,0.137-1,0.389c-0.295,0.271-0.461,0.652-0.461,1.05v15.623
				c0,0.762,0.598,1.393,1.369,1.439c5.479,0.338,10.922,0.513,16.191,0.513c25.871,0,53.215-3.981,81.268-11.826
				c0.625-0.176,1.059-0.742,1.059-1.387v-15.625c0-0.453-0.213-0.876-0.576-1.152C499.951,352.255,499.641,352.158,499.328,352.158
				L499.328,352.158z"/>
		</g>
	</g>
	<g>
		<g>
			<path fill="#3D3A3A" d="M355.614,399.012c-11.426-0.387-23.61-5.336-23.846-9.655c-0.003-0.032-0.003-0.062-0.003-0.093v-30.717
				c0-0.264,0.132-0.506,0.354-0.652c0.134-0.086,0.283-0.13,0.438-0.13c0.102,0,0.209,0.021,0.309,0.063
				c6.8,2.843,14.711,4.834,22.866,5.766c0.401,0.043,0.702,0.377,0.702,0.771v33.87c0,0.212-0.086,0.414-0.242,0.562
				c-0.148,0.141-0.344,0.216-0.55,0.216C355.632,399.012,355.624,399.012,355.614,399.012z"/>
		</g>
		<g>
			<path fill="#3D3A3A" d="M332.557,358.546c6.634,2.773,14.463,4.836,23.084,5.815v33.871c-11.498-0.393-23.003-5.466-23.084-8.97
				l0,0V358.546 M332.557,356.983c-0.308,0-0.612,0.089-0.877,0.262c-0.44,0.288-0.707,0.777-0.707,1.302v30.717
				c0,0.052,0,0.103,0.006,0.157c0.329,5.161,13.714,10.002,24.608,10.375c0.019,0,0.037,0,0.055,0c0.411,0,0.805-0.159,1.1-0.442
				c0.312-0.293,0.486-0.697,0.486-1.12v-33.871c0-0.789-0.603-1.457-1.402-1.548c-8.082-0.92-15.914-2.896-22.65-5.709
				C332.975,357.023,332.766,356.983,332.557,356.983L332.557,356.983z"/>
		</g>
	</g>
</g>
</svg>
